# Blender v2.76 (sub 0) OBJ File: ''
# www.blender.org
mtllib groundPlane.mtl
o Cube
v -5.749664 1.000000 5.749659
v -5.749658 1.000000 -5.749663
v 5.749662 1.000000 -5.749658
v 5.749660 1.000000 5.749662
v -5.749660 1.000000 -0.000002
v -0.000002 1.000000 5.749660
v 0.000002 1.000000 -5.749660
v 5.749660 1.000000 0.000002
v -0.000000 1.000000 0.000000
v -5.749659 1.000000 -2.874833
v 2.874829 1.000000 5.749661
v 2.874832 1.000000 -5.749659
v 5.749660 1.000000 2.874832
v -5.749662 1.000000 2.874828
v -2.874833 1.000000 5.749660
v -2.874828 1.000000 -5.749662
v 5.749661 1.000000 -2.874828
v 0.000001 1.000000 -2.874830
v -0.000001 1.000000 2.874830
v -2.874830 1.000000 -0.000001
v 2.874830 1.000000 0.000001
v 2.874829 1.000000 2.874831
v -2.874832 1.000000 2.874829
v -2.874829 1.000000 -2.874831
v 2.874831 1.000000 -2.874829
v -5.749659 1.000000 -4.312248
v 4.312244 1.000000 5.749661
v 4.312247 1.000000 -5.749659
v 5.749660 1.000000 4.312247
v -5.749661 1.000000 1.437413
v -1.437418 1.000000 5.749660
v -1.437413 1.000000 -5.749661
v 5.749661 1.000000 -1.437413
v 0.000001 1.000000 -4.312245
v -0.000001 1.000000 1.437415
v -4.312245 1.000000 -0.000002
v 1.437415 1.000000 0.000000
v -5.749660 1.000000 -1.437418
v 1.437413 1.000000 5.749661
v 1.437417 1.000000 -5.749660
v 5.749660 1.000000 1.437417
v -5.749663 1.000000 4.312243
v -4.312248 1.000000 5.749659
v -4.312243 1.000000 -5.749662
v 5.749661 1.000000 -4.312243
v 0.000000 1.000000 -1.437415
v -0.000002 1.000000 4.312245
v -1.437415 1.000000 -0.000001
v 4.312245 1.000000 0.000001
v 2.874830 1.000000 1.437416
v 2.874829 1.000000 4.312246
v 1.437414 1.000000 2.874831
v 4.312244 1.000000 2.874832
v -2.874831 1.000000 1.437414
v -2.874832 1.000000 4.312244
v -4.312247 1.000000 2.874829
v -1.437416 1.000000 2.874830
v -2.874829 1.000000 -4.312247
v -2.874830 1.000000 -1.437416
v -4.312244 1.000000 -2.874832
v -1.437414 1.000000 -2.874831
v 2.874832 1.000000 -4.312244
v 2.874831 1.000000 -1.437414
v 1.437416 1.000000 -2.874830
v 4.312246 1.000000 -2.874828
v 4.312246 1.000000 -1.437413
v 1.437416 1.000000 -1.437415
v 1.437417 1.000000 -4.312244
v -1.437415 1.000000 -1.437416
v -4.312245 1.000000 -1.437417
v -4.312243 1.000000 -4.312247
v -1.437417 1.000000 4.312245
v -4.312248 1.000000 4.312244
v -4.312246 1.000000 1.437413
v 4.312244 1.000000 4.312246
v 1.437413 1.000000 4.312246
v 1.437414 1.000000 1.437416
v 4.312245 1.000000 1.437417
v -1.437416 1.000000 1.437415
v -1.437414 1.000000 -4.312246
v 4.312246 1.000000 -4.312243
vt 0.625000 0.625000
vt 0.625000 0.500000
vt 0.750000 0.500000
vt 0.750000 0.625000
vt 0.375000 0.375000
vt 0.375000 0.250000
vt 0.500000 0.250000
vt 0.500000 0.375000
vt 0.750000 0.875000
vt 0.750000 0.750000
vt 0.875000 0.750000
vt 0.875000 0.875000
vt 0.500000 0.750000
vt 0.500000 0.625000
vt 0.625000 0.750000
vt 0.375000 0.500000
vt 0.375000 0.625000
vt 0.250000 0.625000
vt 0.250000 0.500000
vt 0.125000 0.125000
vt 0.125000 0.000000
vt 0.250000 0.000000
vt 0.250000 0.125000
vt 0.500000 0.500000
vt 0.125000 0.500000
vt 0.125000 0.375000
vt 0.250000 0.375000
vt 0.875000 0.500000
vt 0.875000 0.625000
vt 0.125000 0.250000
vt 0.250000 0.250000
vt 0.125000 0.625000
vt 0.250000 1.000000
vt 0.250000 0.875000
vt 0.375000 0.875000
vt 0.375000 1.000000
vt 0.375000 0.750000
vt 0.500000 0.875000
vt 0.625000 0.125000
vt 0.750000 0.125000
vt 0.750000 0.250000
vt 0.625000 0.250000
vt 0.625000 1.000000
vt 0.625000 0.875000
vt 0.750000 1.000000
vt 1.000000 0.875000
vt 1.000000 1.000000
vt 0.875000 1.000000
vt 0.375000 0.125000
vt 0.250000 0.750000
vt 0.000000 0.875000
vt 0.000000 0.750000
vt 0.125000 0.750000
vt 0.125000 0.875000
vt 0.500000 1.000000
vt 0.000000 0.375000
vt 0.000000 0.250000
vt 0.875000 0.250000
vt 0.875000 0.125000
vt 1.000000 0.625000
vt 1.000000 0.500000
vt 1.000000 0.750000
vt 1.000000 0.125000
vt 1.000000 0.250000
vt 0.375000 0.000000
vt 0.125000 1.000000
vt 0.000000 1.000000
vt 0.000000 0.125000
vt 0.500000 0.125000
vt 0.500000 0.000000
vt 0.875000 0.000000
vt 1.000000 0.000000
vt 0.625000 0.375000
vt 0.000000 0.000000
vt 0.750000 0.375000
vt 0.000000 0.625000
vt 0.875000 0.375000
vt 1.000000 0.375000
vt 0.625000 0.000000
vt 0.750000 0.000000
vt 0.000000 0.500000
vn 0.000000 1.000000 0.000000
usemtl Material
s off
f 81/1/1 45/2/1 3/3/1 28/4/1
f 80/5/1 34/6/1 7/7/1 32/8/1
f 79/9/1 35/10/1 9/11/1 48/12/1
f 78/13/1 41/14/1 8/1/1 49/15/1
f 77/16/1 50/17/1 21/18/1 37/19/1
f 76/4/1 51/10/1 22/15/1 52/1/1
f 75/20/1 29/21/1 13/22/1 53/23/1
f 74/17/1 54/16/1 20/24/1 36/14/1
f 73/25/1 55/26/1 23/27/1 56/19/1
f 72/3/1 47/28/1 19/29/1 57/4/1
f 71/26/1 58/30/1 16/31/1 44/27/1
f 70/32/1 59/25/1 24/19/1 60/18/1
f 69/33/1 46/34/1 18/35/1 61/36/1
f 68/35/1 62/37/1 12/13/1 40/38/1
f 67/39/1 63/40/1 25/41/1 64/42/1
f 66/43/1 33/44/1 17/9/1 65/45/1
f 63/46/1 66/47/1 65/48/1 25/12/1
f 21/31/1 49/23/1 66/49/1 63/6/1
f 49/45/1 8/9/1 33/12/1 66/48/1
f 46/50/1 67/18/1 64/17/1 18/37/1
f 9/51/1 37/52/1 67/53/1 46/54/1
f 37/55/1 21/38/1 63/44/1 67/43/1
f 34/56/1 68/57/1 40/30/1 7/26/1
f 18/58/1 64/41/1 68/40/1 34/59/1
f 64/38/1 25/13/1 62/15/1 68/44/1
f 59/9/1 69/44/1 61/15/1 24/10/1
f 20/55/1 48/36/1 69/35/1 59/38/1
f 48/60/1 9/29/1 46/28/1 69/61/1
f 38/12/1 70/11/1 60/62/1 10/46/1
f 5/58/1 36/59/1 70/63/1 38/64/1
f 36/23/1 20/22/1 59/65/1 70/49/1
f 26/66/1 71/54/1 44/34/1 2/33/1
f 10/50/1 60/34/1 71/54/1 26/53/1
f 60/54/1 24/66/1 58/67/1 71/51/1
f 55/57/1 72/68/1 57/20/1 23/30/1
f 15/69/1 31/49/1 72/65/1 55/70/1
f 31/71/1 6/72/1 47/63/1 72/59/1
f 42/73/1 73/8/1 56/7/1 14/42/1
f 1/37/1 43/17/1 73/14/1 42/13/1
f 43/30/1 15/20/1 55/23/1 73/31/1
f 30/16/1 74/5/1 36/8/1 5/24/1
f 14/39/1 56/42/1 74/7/1 30/69/1
f 56/16/1 23/19/1 54/27/1 74/5/1
f 51/27/1 75/31/1 53/6/1 22/5/1
f 11/68/1 27/74/1 75/21/1 51/20/1
f 27/73/1 4/42/1 29/41/1 75/75/1
f 47/10/1 76/4/1 52/29/1 19/11/1
f 6/52/1 39/76/1 76/32/1 47/53/1
f 39/14/1 11/24/1 51/2/1 76/1/1
f 35/77/1 77/75/1 37/41/1 9/58/1
f 19/78/1 52/77/1 77/58/1 35/64/1
f 52/39/1 22/79/1 50/80/1 77/40/1
f 50/28/1 78/77/1 49/78/1 21/61/1
f 22/2/1 53/73/1 78/75/1 50/3/1
f 53/24/1 13/8/1 41/73/1 78/2/1
f 54/53/1 79/32/1 48/18/1 20/50/1
f 23/7/1 57/6/1 79/49/1 54/69/1
f 57/75/1 19/77/1 35/28/1 79/3/1
f 58/11/1 80/29/1 32/60/1 16/62/1
f 24/50/1 61/37/1 80/35/1 58/34/1
f 61/39/1 18/69/1 34/70/1 80/79/1
f 62/76/1 81/81/1 28/25/1 12/32/1
f 25/40/1 65/80/1 81/71/1 62/59/1
f 65/25/1 17/81/1 45/56/1 81/26/1
